<?xml version="1.0" encoding="UTF-8"?>
<svg version="1.1" xmlns="http://www.w3.org/2000/svg" width="512" height="512">
<path d="M0 0 C168.96 0 337.92 0 512 0 C512 168.96 512 337.92 512 512 C343.04 512 174.08 512 0 512 C0 343.04 0 174.08 0 0 Z " fill="#222222" transform="translate(0,0)"/>
<path d="M0 0 C36.96 0 73.92 0 112 0 C112 6.27 112 12.54 112 19 C110.03675781 19.09796875 108.07351562 19.1959375 106.05078125 19.296875 C103.47129798 19.44695403 100.89187366 19.59804868 98.3125 19.75 C97.01892578 19.811875 95.72535156 19.87375 94.39257812 19.9375 C93.14541016 20.01484375 91.89824219 20.0921875 90.61328125 20.171875 C89.46641846 20.2347168 88.31955566 20.29755859 87.13793945 20.36230469 C83.44092733 21.11361533 81.69243984 22.40268101 79 25 C77.78013933 27.43972133 77.86188278 29.03019371 77.84178162 31.75820923 C77.8319928 32.76224289 77.82220398 33.76627655 77.81211853 34.80073547 C77.80636307 35.90628281 77.8006076 37.01183014 77.79467773 38.15087891 C77.78477814 39.31184586 77.77487854 40.47281281 77.76467896 41.66896057 C77.73299201 45.52147352 77.70827809 49.37399883 77.68359375 53.2265625 C77.66303043 55.89171786 77.64208249 58.5568674 77.62062073 61.22201538 C77.57067537 67.52950748 77.5257434 73.83702501 77.48259836 80.14456689 C77.43324172 87.32467615 77.37831777 94.50473942 77.32291877 101.6848042 C77.20907045 116.45649251 77.10223762 131.22822666 77 146 C79.59413157 145.90396492 82.18548792 145.7904971 84.77832031 145.66674805 C85.87842941 145.62873707 85.87842941 145.62873707 87.00076294 145.58995819 C92.34329219 145.32872218 92.34329219 145.32872218 96.546875 142.33203125 C97.73835558 140.65266655 97.73835558 140.65266655 98.75 138.8125 C99.61173229 137.52975229 100.47776445 136.24988469 101.34765625 134.97265625 C101.77578613 134.31410645 102.20391602 133.65555664 102.64501953 132.97705078 C104.9033698 129.68189394 107.54489984 126.73897441 110.1875 123.75 C114.26108369 119.05603093 118.22216367 114.2975947 122.078125 109.421875 C125.66376736 104.90338259 129.34123694 100.45931292 133 96 C134.50028317 94.16689838 136.00028408 92.33356573 137.5 90.5 C173.5 46.5 173.5 46.5 175.71875 43.7890625 C177.32404236 41.82642767 178.9282639 39.86295334 180.53125 37.8984375 C181.3459375 36.90070313 182.160625 35.90296875 183 34.875 C184.11375 33.50988281 184.11375 33.50988281 185.25 32.1171875 C186.13277792 31.04918385 187.02022231 29.97977769 188 29 C188.36760731 26.67182036 188.70241581 24.3381615 189 22 C188.39003174 21.94465088 187.78006348 21.88930176 187.15161133 21.83227539 C184.37164727 21.57844684 181.59207876 21.32051225 178.8125 21.0625 C177.85279297 20.97548828 176.89308594 20.88847656 175.90429688 20.79882812 C174.97294922 20.71181641 174.04160156 20.62480469 173.08203125 20.53515625 C172.22843018 20.456604 171.3748291 20.37805176 170.49536133 20.29711914 C167.97755618 19.99732765 165.48635076 19.49727015 163 19 C163 12.73 163 6.46 163 0 C193.69 0 224.38 0 256 0 C256 6.27 256 12.54 256 19 C252.97779297 19.17208984 252.97779297 19.17208984 249.89453125 19.34765625 C233.36123167 20.05983657 233.36123167 20.05983657 219.69775391 28.08789062 C217.70778396 30.68971359 215.87175903 33.33615505 214.16601562 36.1328125 C212.49211301 38.81329977 210.48323907 41.15911424 208.4375 43.5625 C207.73496094 44.43003906 207.03242188 45.29757813 206.30859375 46.19140625 C203.58655815 49.50298593 200.79856861 52.7531 198 56 C193.68060414 61.01310059 189.44902564 66.0853771 185.27734375 71.22265625 C182.71795946 74.34396367 180.11406209 77.4245003 177.5 80.5 C174.12716411 84.46903543 170.78823355 88.46017021 167.5 92.5 C164.21176463 96.53983203 160.87276868 100.5309053 157.5 104.5 C153.2565292 109.49410218 149.06896326 114.52852394 144.953125 119.62890625 C143.31801459 121.61393029 141.62112002 123.48976602 139.875 125.375 C137.71454248 127.79377376 137.71454248 127.79377376 138.22753906 130.41552734 C139.00958189 133.03205874 139.91978012 134.75333611 141.484375 136.9765625 C142.00064453 137.71970703 142.51691406 138.46285156 143.04882812 139.22851562 C143.61021484 140.01935547 144.17160156 140.81019531 144.75 141.625 C145.94292618 143.33578561 147.13562836 145.04672744 148.328125 146.7578125 C148.93978516 147.62954102 149.55144531 148.50126953 150.18164062 149.39941406 C152.98660061 153.41101902 155.74218785 157.45591058 158.5 161.5 C159.58566284 163.08742746 160.67160106 164.67466662 161.7578125 166.26171875 C162.29438477 167.04595215 162.83095703 167.83018555 163.38378906 168.63818359 C164.98210518 170.97384977 166.58083944 173.30922918 168.1796875 175.64453125 C174.60138109 185.02524051 181.01145376 194.41378282 187.41357422 203.80786133 C191.4362392 209.70945943 195.46514674 215.60672911 199.5 221.5 C203.53568029 227.39447885 207.56626284 233.29237739 211.58813477 239.19628906 C212.85479183 241.05381552 214.12348494 242.90995534 215.39428711 244.76464844 C218.51913476 249.32977009 221.60787663 253.9122756 224.62890625 258.546875 C225.20769531 259.4234375 225.78648437 260.3 226.3828125 261.203125 C227.47285811 262.85593834 228.5504964 264.51702709 229.61328125 266.1875 C230.103125 266.92484375 230.59296875 267.6621875 231.09765625 268.421875 C231.51539307 269.06737305 231.93312988 269.71287109 232.36352539 270.37792969 C236.13030159 274.11155061 241.44184951 274.2961233 246.4921875 274.6328125 C247.69101562 274.71660156 248.88984375 274.80039062 250.125 274.88671875 C251.3625 274.96535156 252.6 275.04398437 253.875 275.125 C255.76605469 275.25455078 255.76605469 275.25455078 257.6953125 275.38671875 C260.79640494 275.59815687 263.89814773 275.80001776 267 276 C267 282.27 267 288.54 267 295 C241.59 295 216.18 295 190 295 C189.67 290.38 189.34 285.76 189 281 C187.44651961 277.97901427 186.40045124 276.2342195 184.25 273.8125 C183.23723459 272.55501495 182.22829011 271.29444554 181.22265625 270.03125 C180.6930127 269.38027344 180.16336914 268.72929687 179.61767578 268.05859375 C176.77853685 264.44561163 174.25019135 260.62395218 171.6875 256.8125 C170.58448015 255.1880228 169.48029883 253.56433368 168.375 251.94140625 C167.81941406 251.12559082 167.26382813 250.30977539 166.69140625 249.46923828 C163.88691193 245.3750328 161.0384343 241.31194707 158.1875 237.25 C151.11505908 227.17076022 144.08172071 217.06469737 137.05419922 206.95410156 C134.97626573 203.96586823 132.89659484 200.97885136 130.81640625 197.9921875 C130.13296143 197.00726318 129.4495166 196.02233887 128.74536133 195.00756836 C127.38201484 193.05644146 126.00565147 191.1143408 124.6159668 189.18188477 C121.10115117 184.25840596 118.06013531 179.55814506 115.79394531 173.93383789 C113.5853295 170.17450028 111.84892825 167.2580835 108 165 C102.70093903 164.03686665 97.4606519 164.05391377 92.09765625 164.0859375 C90.63347066 164.07093267 89.16931217 164.05297584 87.7052002 164.03198242 C84.13647386 163.98720121 80.5690275 163.98265121 77 164 C77.06118642 177.34331494 77.13827509 190.68643389 77.23571491 204.02953625 C77.28045857 210.22516265 77.31970606 216.42072269 77.34643555 222.61645508 C77.37242839 228.59472988 77.41280271 234.57274982 77.46318626 240.55086708 C77.47988211 242.83260238 77.49137942 245.11438179 77.49761391 247.39616966 C77.50722521 250.59015042 77.53524981 253.78347514 77.56762695 256.97729492 C77.56619186 257.92244461 77.56475677 258.8675943 77.5632782 259.84138489 C77.63303445 264.7012942 77.80903893 268.06813366 81 272 C84.21809066 274.28349547 87.42425159 274.37707322 91.296875 274.6328125 C92.50214844 274.71660156 93.70742187 274.80039062 94.94921875 274.88671875 C96.20347656 274.96535156 97.45773438 275.04398437 98.75 275.125 C100.65458984 275.25455078 100.65458984 275.25455078 102.59765625 275.38671875 C105.7312644 275.59876742 108.86557543 275.80038218 112 276 C112 282.27 112 288.54 112 295 C75.04 295 38.08 295 0 295 C0 288.73 0 282.46 0 276 C2.85398437 275.74476563 2.85398437 275.74476563 5.765625 275.484375 C8.26050784 275.24051427 10.75529482 274.99567147 13.25 274.75 C14.50425781 274.64042969 15.75851563 274.53085937 17.05078125 274.41796875 C18.25605469 274.29550781 19.46132812 274.17304688 20.703125 274.046875 C21.81333008 273.94213867 22.92353516 273.83740234 24.06738281 273.72949219 C27.74299363 272.81517941 28.77658561 272.07732183 31 269 C31.60487135 265.78077957 31.5436031 262.59486246 31.5146637 259.32740784 C31.52160922 258.33521474 31.52855475 257.34302165 31.53571075 256.3207621 C31.5540492 252.9864825 31.54369713 249.65290891 31.53344727 246.31860352 C31.54050226 243.93206243 31.54924549 241.54552583 31.55955505 239.15899658 C31.5797622 233.34379975 31.58106463 227.52882618 31.57292951 221.71360416 C31.56663206 216.98736887 31.56776418 212.26119066 31.57420158 207.53495598 C31.57510324 206.86252877 31.57600489 206.19010156 31.57693387 205.49729778 C31.57878506 204.13130155 31.58064762 202.76530534 31.58252143 201.39930915 C31.5991049 188.58641674 31.59037624 175.77363441 31.57353585 162.96074861 C31.55883989 151.23723856 31.57346471 139.51398483 31.60230602 127.7905078 C31.63169563 115.75456695 31.6426735 103.71874441 31.63312382 91.68276924 C31.63210126 90.32146611 31.63110665 88.96016296 31.6301403 87.59885979 C31.62942572 86.59416686 31.62942572 86.59416686 31.6286967 85.56917711 C31.62653189 80.84907198 31.63634014 76.12907879 31.65091133 71.40899849 C31.66922483 65.05513644 31.66336217 58.70175182 31.63871193 52.34791565 C31.63369039 50.01341937 31.63722836 47.67888698 31.64986038 45.34441948 C31.66571964 42.16225104 31.650906 38.98166845 31.62818909 35.79957581 C31.64002482 34.87136806 31.65186054 33.94316031 31.66405493 32.98682505 C31.59876469 28.49844435 31.45811517 26.59642961 28.64538479 22.93447781 C25.51099359 20.64240664 23.67744987 20.28301452 19.82421875 20.07421875 C18.66728516 20.00009766 17.51035156 19.92597656 16.31835938 19.84960938 C15.12017578 19.79611328 13.92199219 19.74261719 12.6875 19.6875 C10.8612207 19.57825195 10.8612207 19.57825195 8.99804688 19.46679688 C5.9998473 19.29043219 3.00000209 19.14245226 0 19 C0 12.73 0 6.46 0 0 Z " fill="#FDFDFD" transform="translate(123,109)"/>
<path d="M0 0 C0.33 0 0.66 0 1 0 C1 13.53 1 27.06 1 41 C-12.53 41 -26.06 41 -40 41 C-36.77794772 39.38897386 -33.66489916 38.09649079 -30.3125 36.8125 C-16.32964928 30.99481758 -7.86955879 20.70813891 -2 7 C-1.17794005 4.65968578 -0.55034658 2.42152494 0 0 Z " fill="#000000" transform="translate(511,471)"/>
<path d="M0 0 C1.61102614 3.22205228 2.90350921 6.33510084 4.1875 9.6875 C10.00518242 23.67035072 20.29186109 32.13044121 34 38 C36.34031422 38.82205995 38.57847506 39.44965342 41 40 C41 40.33 41 40.66 41 41 C27.47 41 13.94 41 0 41 C0 27.47 0 13.94 0 0 Z " fill="#000000" transform="translate(0,471)"/>
<path d="M0 0 C13.53 0 27.06 0 41 0 C41 13.53 41 27.06 41 41 C39.38897386 37.77794772 38.09649079 34.66489916 36.8125 31.3125 C30.99481758 17.32964928 20.70813891 8.86955879 7 3 C4.65968578 2.17794005 2.42152494 1.55034658 0 1 C0 0.67 0 0.34 0 0 Z " fill="#000000" transform="translate(471,0)"/>
<path d="M0 0 C13.53 0 27.06 0 41 0 C37.77794772 1.61102614 34.66489916 2.90350921 31.3125 4.1875 C17.32964928 10.00518242 8.86955879 20.29186109 3 34 C2.17794005 36.34031422 1.55034658 38.57847506 1 41 C0.67 41 0.34 41 0 41 C0 27.47 0 13.94 0 0 Z " fill="#000000" transform="translate(0,0)"/>
</svg>
